<svg width="210" height="92" viewBox="0 0 210 92" fill="none" xmlns="http://www.w3.org/2000/svg">
<path d="M83.7573 24.0527H123.208" stroke="#F1F3F6" stroke-width="2"/>
<path d="M97.1099 84.1836H112.283" stroke="#F1F3F6" stroke-width="2"/>
<path d="M63.8147 75.0628C63.8262 75.0628 63.8317 75.0796 63.8317 75.1133C63.8317 75.1469 63.8262 75.1638 63.8147 75.1638H62.7016C62.6221 75.1638 62.5541 75.1439 62.4976 75.1048C62.4412 75.0597 62.3417 74.9449 62.2002 74.7597C62.0588 74.5745 61.8148 74.2378 61.4695 73.7495C61.1806 73.34 60.9767 73.0646 60.8577 72.9245C60.7442 72.7784 60.6226 72.675 60.4923 72.613C60.3677 72.5457 60.1978 72.512 59.9825 72.512H59.889V74.4819C59.889 74.6503 59.906 74.7765 59.94 74.8607C59.974 74.9395 60.0391 74.9924 60.1354 75.0207C60.2374 75.0489 60.396 75.0628 60.6113 75.0628C60.6226 75.0628 60.6283 75.0796 60.6283 75.1133C60.6283 75.1469 60.6226 75.1638 60.6113 75.1638C60.43 75.1638 60.2855 75.1608 60.1779 75.1554L59.5576 75.1469L58.9713 75.1554C58.8637 75.1608 58.7193 75.1638 58.538 75.1638C58.5266 75.1638 58.521 75.1469 58.521 75.1133C58.521 75.0796 58.5266 75.0628 58.538 75.0628C58.7533 75.0628 58.909 75.0489 59.0053 75.0207C59.1073 74.9924 59.1753 74.9395 59.2093 74.8607C59.2489 74.7765 59.2687 74.6503 59.2687 74.4819V70.5842C59.2687 70.4159 59.2489 70.2926 59.2093 70.2138C59.1753 70.135 59.1073 70.0821 59.0053 70.0539C58.909 70.0202 58.7561 70.0034 58.5465 70.0034C58.5351 70.0034 58.5295 69.9865 58.5295 69.9528C58.5295 69.9192 58.5351 69.9023 58.5465 69.9023L58.9713 69.9108C59.2206 69.9222 59.416 69.9276 59.5576 69.9276C59.7276 69.9276 59.9372 69.9222 60.1864 69.9108L60.6113 69.9023C60.6226 69.9023 60.6283 69.9192 60.6283 69.9528C60.6283 69.9865 60.6226 70.0034 60.6113 70.0034C60.4017 70.0034 60.2459 70.0202 60.1439 70.0539C60.0476 70.0875 59.9796 70.1465 59.94 70.2306C59.906 70.3094 59.889 70.4327 59.889 70.6011V72.3773C60.1949 72.3659 60.3847 72.3605 60.4583 72.3605H60.5943L61.597 70.9799C61.8464 70.6431 61.9708 70.396 61.9708 70.2391C61.9708 70.1549 61.9368 70.096 61.8689 70.0623C61.8009 70.0232 61.6959 70.0034 61.5545 70.0034C61.5429 70.0034 61.5375 69.9865 61.5375 69.9528C61.5375 69.9192 61.5429 69.9023 61.5545 69.9023L61.9198 69.9108C62.1462 69.9222 62.3532 69.9276 62.5401 69.9276C62.7386 69.9276 62.9395 69.9222 63.1434 69.9108L63.4663 69.9023C63.4833 69.9023 63.4918 69.9192 63.4918 69.9528C63.4918 69.9865 63.4833 70.0034 63.4663 70.0034C63.1774 70.0034 62.911 70.0791 62.6676 70.2306C62.4297 70.3822 62.1832 70.6209 61.9283 70.9462L60.7982 72.3773C60.9566 72.3996 61.0902 72.4501 61.1976 72.5288C61.3111 72.6016 61.4215 72.7056 61.529 72.8403C61.6364 72.975 61.8209 73.2221 62.0813 73.5811C62.3477 73.9569 62.5602 74.2432 62.7186 74.4398C62.883 74.6304 63.053 74.7819 63.2284 74.8944C63.4038 75.0008 63.5992 75.0573 63.8147 75.0628ZM66.8482 75.2648C66.3213 75.2648 65.8516 75.1439 65.4376 74.9028C65.0298 74.6557 64.713 74.325 64.486 73.9094C64.265 73.4885 64.1546 73.0309 64.1546 72.5373C64.1546 71.9594 64.3021 71.4651 64.5964 71.0556C64.8914 70.6401 65.2677 70.3287 65.7265 70.1212C66.1915 69.9138 66.6643 69.8097 67.1456 69.8097C67.6839 69.8097 68.1567 69.936 68.5646 70.1886C68.9724 70.4357 69.2844 70.764 69.4993 71.1735C69.7202 71.583 69.8307 72.0183 69.8307 72.4783C69.8307 72.9888 69.6947 73.4579 69.4228 73.8842C69.1509 74.3105 68.7855 74.6473 68.3267 74.8944C67.8739 75.1415 67.3811 75.2648 66.8482 75.2648ZM67.1456 75.0796C67.5194 75.0796 67.8539 74.987 68.1482 74.8018C68.4487 74.6166 68.6835 74.3472 68.8535 73.9936C69.0295 73.6346 69.1169 73.2077 69.1169 72.714C69.1169 72.1921 69.021 71.7261 68.828 71.3166C68.6411 70.9071 68.3722 70.5872 68.0208 70.3569C67.67 70.1266 67.2621 70.0118 66.7972 70.0118C66.1915 70.0118 65.7181 70.2108 65.3782 70.6095C65.0383 71.0021 64.8683 71.5469 64.8683 72.2426C64.8683 72.77 64.9648 73.2498 65.1572 73.6822C65.3502 74.1145 65.6191 74.4566 65.9645 74.7092C66.3104 74.9563 66.7037 75.0796 67.1456 75.0796ZM71.8718 70.0623C71.5204 70.0623 71.2485 70.1579 71.0561 70.3485C70.8691 70.5337 70.7332 70.8398 70.6482 71.2661C70.6421 71.2829 70.6227 71.2914 70.5887 71.2914C70.5602 71.2859 70.5462 71.2775 70.5462 71.2661C70.5687 71.1092 70.5942 70.8566 70.6227 70.5085C70.6506 70.1603 70.6652 69.8969 70.6652 69.7171C70.6652 69.6889 70.6822 69.675 70.7162 69.675C70.7502 69.675 70.7672 69.6889 70.7672 69.7171C70.7672 69.8404 70.9201 69.9023 71.226 69.9023C71.7128 69.9192 72.2821 69.9276 72.9339 69.9276C73.2677 69.9276 73.6222 69.9222 73.9961 69.9108L74.5739 69.9023C74.7778 69.9023 74.9277 69.8885 75.0242 69.8602C75.1262 69.832 75.1911 69.7761 75.2196 69.6919C75.2251 69.6696 75.2421 69.6582 75.2706 69.6582C75.2985 69.6582 75.3131 69.6696 75.3131 69.6919C75.2961 69.8548 75.2791 70.1074 75.2621 70.4495C75.2451 70.7863 75.2366 71.0586 75.2366 71.2661C75.2366 71.2775 75.2196 71.2829 75.1856 71.2829C75.1571 71.2829 75.1401 71.2775 75.1347 71.2661C75.1116 70.8338 75.0096 70.5253 74.8288 70.3401C74.6528 70.1549 74.3784 70.0623 74.0046 70.0623C73.7776 70.0623 73.6137 70.0737 73.5117 70.096C73.4152 70.1182 73.3472 70.1663 73.3078 70.2391C73.2738 70.3118 73.2568 70.4327 73.2568 70.6011V74.4819C73.2568 74.6557 73.2738 74.7819 73.3078 74.8607C73.3472 74.9395 73.4207 74.9924 73.5287 75.0207C73.6416 75.0489 73.82 75.0628 74.064 75.0628C74.075 75.0628 74.081 75.0796 74.081 75.1133C74.081 75.1469 74.075 75.1638 74.064 75.1638C73.871 75.1638 73.7181 75.1608 73.6052 75.1554L72.9339 75.1469L72.2881 75.1554C72.1746 75.1608 72.0162 75.1638 71.8123 75.1638C71.8008 75.1638 71.7953 75.1469 71.7953 75.1133C71.7953 75.0796 71.8008 75.0628 71.8123 75.0628C72.0502 75.0628 72.2256 75.0489 72.3391 75.0207C72.452 74.9924 72.5285 74.9395 72.5685 74.8607C72.608 74.7765 72.628 74.6503 72.628 74.4819V70.5842C72.628 70.4213 72.608 70.3064 72.5685 70.2391C72.5346 70.1663 72.4666 70.1182 72.3646 70.096C72.2681 70.0737 72.1036 70.0623 71.8718 70.0623ZM77.4435 70.0623C77.092 70.0623 76.8201 70.1579 76.6277 70.3485C76.4408 70.5337 76.3048 70.8398 76.2199 71.2661C76.2144 71.2829 76.1944 71.2914 76.1604 71.2914C76.1319 71.2859 76.1179 71.2775 76.1179 71.2661C76.1404 71.1092 76.1659 70.8566 76.1944 70.5085C76.2229 70.1603 76.2369 69.8969 76.2369 69.7171C76.2369 69.6889 76.2539 69.675 76.2878 69.675C76.3218 69.675 76.3388 69.6889 76.3388 69.7171C76.3388 69.8404 76.4918 69.9023 76.7977 69.9023C77.285 69.9192 77.8544 69.9276 78.5056 69.9276C78.84 69.9276 79.1939 69.9222 79.5677 69.9108L80.1455 69.9023C80.3495 69.9023 80.4994 69.8885 80.5959 69.8602C80.6978 69.832 80.7628 69.7761 80.7913 69.6919C80.7968 69.6696 80.8138 69.6582 80.8423 69.6582C80.8708 69.6582 80.8848 69.6696 80.8848 69.6919C80.8678 69.8548 80.8508 70.1074 80.8338 70.4495C80.8168 70.7863 80.8083 71.0586 80.8083 71.2661C80.8083 71.2775 80.7913 71.2829 80.7573 71.2829C80.7288 71.2829 80.7118 71.2775 80.7064 71.2661C80.6839 70.8338 80.5819 70.5253 80.4004 70.3401C80.225 70.1549 79.9501 70.0623 79.5762 70.0623C79.3498 70.0623 79.1854 70.0737 79.0834 70.096C78.9869 70.1182 78.9189 70.1663 78.8795 70.2391C78.8455 70.3118 78.8285 70.4327 78.8285 70.6011V74.4819C78.8285 74.6557 78.8455 74.7819 78.8795 74.8607C78.9189 74.9395 78.993 74.9924 79.1004 75.0207C79.2139 75.0489 79.3923 75.0628 79.6357 75.0628C79.6472 75.0628 79.6527 75.0796 79.6527 75.1133C79.6527 75.1469 79.6472 75.1638 79.6357 75.1638C79.4433 75.1638 79.2904 75.1608 79.1769 75.1554L78.5056 75.1469L77.8598 75.1554C77.7463 75.1608 77.5879 75.1638 77.384 75.1638C77.3724 75.1638 77.367 75.1469 77.367 75.1133C77.367 75.0796 77.3724 75.0628 77.384 75.0628C77.6219 75.0628 77.7973 75.0489 77.9108 75.0207C78.0243 74.9924 78.1008 74.9395 78.1402 74.8607C78.1797 74.7765 78.1997 74.6503 78.1997 74.4819V70.5842C78.1997 70.4213 78.1797 70.3064 78.1402 70.2391C78.1062 70.1663 78.0382 70.1182 77.9363 70.096C77.8398 70.0737 77.6759 70.0623 77.4435 70.0623ZM85.4368 73.901C85.4368 73.8842 85.4538 73.8788 85.4878 73.8842C85.5218 73.8842 85.5388 73.8926 85.5388 73.9094C85.4878 74.2744 85.4623 74.6503 85.4623 75.0375C85.4623 75.0826 85.4514 75.1163 85.4283 75.1385C85.4113 75.1554 85.3773 75.1638 85.3263 75.1638H81.7321C81.7211 75.1638 81.7151 75.1469 81.7151 75.1133C81.7151 75.0796 81.7211 75.0628 81.7321 75.0628C81.9421 75.0628 82.095 75.0489 82.1909 75.0207C82.2874 74.9924 82.3524 74.9395 82.3863 74.8607C82.4203 74.7765 82.4373 74.6503 82.4373 74.4819V70.5842C82.4373 70.4159 82.4203 70.2926 82.3863 70.2138C82.3524 70.135 82.2874 70.0821 82.1909 70.0539C82.095 70.0202 81.9421 70.0034 81.7321 70.0034C81.7211 70.0034 81.7151 69.9865 81.7151 69.9528C81.7151 69.9192 81.7211 69.9023 81.7321 69.9023H85.1819C85.2329 69.9023 85.2584 69.9276 85.2584 69.9781L85.2754 71.0304C85.2754 71.0472 85.2584 71.0556 85.2244 71.0556C85.1965 71.0556 85.1819 71.0472 85.1819 71.0304C85.1479 70.7273 85.0435 70.4946 84.8675 70.3317C84.6921 70.1687 84.4627 70.0875 84.1792 70.0875H83.7119C83.4461 70.0875 83.2701 70.1242 83.1851 70.197C83.1001 70.2697 83.0576 70.4104 83.0576 70.6179V72.3352H84.0348C84.3182 72.3352 84.5222 72.2877 84.6466 72.1921C84.7771 72.0965 84.842 71.9426 84.842 71.7291C84.842 71.7177 84.859 71.7123 84.893 71.7123C84.927 71.7123 84.944 71.7177 84.944 71.7291L84.9355 72.4278C84.9355 72.5908 84.9385 72.714 84.944 72.7982L84.9525 73.2191C84.9525 73.2306 84.9355 73.236 84.9015 73.236C84.8675 73.236 84.8505 73.2306 84.8505 73.2191C84.8505 72.972 84.7856 72.7952 84.6551 72.6888C84.5252 72.5763 84.3128 72.5204 84.0178 72.5204H83.0576V74.4482C83.0576 74.5943 83.0746 74.7038 83.1086 74.7765C83.1426 74.8493 83.2021 74.9028 83.287 74.9365C83.372 74.9647 83.5025 74.9786 83.6779 74.9786H84.2812C84.5816 74.9786 84.8311 74.886 85.0289 74.7008C85.2274 74.5102 85.3634 74.2432 85.4368 73.901ZM91.8612 74.9617C91.9068 74.9617 91.9322 74.9671 91.9377 74.9786C91.9492 74.984 91.9547 75.0122 91.9547 75.0628C91.9547 75.091 91.9492 75.1668 91.9377 75.29C91.8983 75.6045 91.8782 76.0002 91.8782 76.477C91.8782 76.5053 91.8612 76.5191 91.8272 76.5191C91.7933 76.5191 91.7763 76.5053 91.7763 76.477C91.7763 76.0224 91.6573 75.6887 91.4194 75.4752C91.1815 75.2678 90.8021 75.1638 90.2808 75.1638H87.8081C86.9529 75.1638 86.525 75.6015 86.525 76.477C86.525 76.5053 86.508 76.5191 86.4741 76.5191C86.4455 76.5191 86.4316 76.5053 86.4316 76.477C86.4316 76.011 86.4091 75.6436 86.3636 75.3742C86.3466 75.2678 86.3381 75.1638 86.3381 75.0628C86.3381 75.0177 86.3411 74.99 86.3466 74.9786C86.3581 74.9671 86.3861 74.9617 86.4316 74.9617H86.9839L89.0997 69.835C89.1051 69.8182 89.1252 69.8097 89.1591 69.8097C89.1931 69.8097 89.2132 69.8182 89.2186 69.835L91.4109 74.9617H91.8612ZM87.2133 74.9617H90.7311L88.9467 70.761L87.2133 74.9617ZM100.749 75.0628C100.76 75.0628 100.766 75.0796 100.766 75.1133C100.766 75.1469 100.76 75.1638 100.749 75.1638H99.627C99.559 75.1638 99.4995 75.1439 99.4485 75.1048C99.3976 75.0597 99.3096 74.9479 99.1851 74.7681C99.0601 74.5829 98.8368 74.2432 98.5139 73.7495C98.2529 73.3508 98.0605 73.076 97.9361 72.9245C97.8171 72.7676 97.6921 72.6605 97.5622 72.6046C97.4317 72.5427 97.2563 72.512 97.0354 72.512C96.9674 72.512 96.9134 72.515 96.8739 72.5204V74.4819C96.8739 74.6503 96.8909 74.7765 96.9249 74.8607C96.9589 74.9395 97.0269 74.9924 97.1288 75.0207C97.2308 75.0489 97.3892 75.0628 97.6047 75.0628C97.6156 75.0628 97.6217 75.0796 97.6217 75.1133C97.6217 75.1469 97.6156 75.1638 97.6047 75.1638C97.4232 75.1638 97.2787 75.1608 97.1713 75.1554L96.551 75.1469L95.9647 75.1554C95.8628 75.1608 95.7207 75.1638 95.5399 75.1638C95.5229 75.1638 95.5144 75.1469 95.5144 75.1133C95.5144 75.0796 95.5229 75.0628 95.5399 75.0628C95.7547 75.0628 95.9107 75.0489 96.0072 75.0207C96.1092 74.9924 96.1772 74.9395 96.2111 74.8607C96.2506 74.7765 96.2706 74.6503 96.2706 74.4819V72.5204L96.1007 72.512C95.8798 72.512 95.7037 72.5427 95.5739 72.6046C95.4434 72.6605 95.3159 72.7676 95.1915 72.9245C95.0665 73.076 94.8771 73.3484 94.6222 73.7411C94.3673 74.1397 94.1603 74.4566 94.0019 74.6924C93.8429 74.9227 93.7385 75.0597 93.6875 75.1048C93.6365 75.1439 93.577 75.1638 93.5091 75.1638H92.3959C92.3844 75.1638 92.3789 75.1469 92.3789 75.1133C92.3789 75.0796 92.3844 75.0628 92.3959 75.0628C92.5999 75.0573 92.7807 75.0038 92.9398 74.9028C93.1036 74.7964 93.2626 74.6472 93.4156 74.4566C93.5685 74.26 93.7779 73.9684 94.0444 73.5811C94.2653 73.2558 94.4267 73.0255 94.5287 72.8908C94.6307 72.7507 94.7296 72.6413 94.8261 72.5625C94.9281 72.4783 95.044 72.4224 95.1745 72.3941L94.1464 70.9462C93.9084 70.6041 93.6705 70.3623 93.4326 70.2222C93.1947 70.0761 92.9197 70.0034 92.6084 70.0034C92.5968 70.0034 92.5914 69.9865 92.5914 69.9528C92.5914 69.9192 92.5968 69.9023 92.6084 69.9023L92.9313 69.9108C93.1461 69.9222 93.3476 69.9276 93.5345 69.9276C93.7215 69.9276 93.9339 69.9222 94.1718 69.9108L94.5882 69.9023C94.6052 69.9023 94.6137 69.9192 94.6137 69.9528C94.6137 69.9865 94.6052 70.0034 94.5882 70.0034C94.4352 70.0034 94.3218 70.0232 94.2483 70.0623C94.1743 70.096 94.1378 70.1519 94.1378 70.2306C94.1378 70.3708 94.2623 70.6347 94.5117 71.022L95.3529 72.3689C95.4094 72.3635 95.5059 72.3605 95.6418 72.3605C95.7098 72.3605 95.9192 72.3659 96.2706 72.3773V70.5842C96.2706 70.4213 96.2476 70.301 96.2026 70.2222C96.1571 70.138 96.0776 70.0821 95.9647 70.0539C95.8567 70.0202 95.6953 70.0034 95.4804 70.0034C95.4689 70.0034 95.4634 69.9865 95.4634 69.9528C95.4634 69.9192 95.4689 69.9023 95.4804 69.9023L95.9392 69.9108C96.1996 69.9222 96.4035 69.9276 96.551 69.9276C96.7094 69.9276 96.9304 69.9222 97.2138 69.9108L97.6726 69.9023C97.6836 69.9023 97.6896 69.9192 97.6896 69.9528C97.6896 69.9865 97.6836 70.0034 97.6726 70.0034C97.4572 70.0034 97.2927 70.0202 97.1798 70.0539C97.0718 70.0875 96.9929 70.1465 96.9419 70.2306C96.8964 70.3148 96.8739 70.4381 96.8739 70.6011V72.3773C97.2247 72.3659 97.4347 72.3605 97.5027 72.3605C97.6326 72.3605 97.7261 72.3635 97.7831 72.3689L98.6243 71.0304C98.7542 70.8283 98.8507 70.6654 98.9132 70.5421C98.9751 70.4189 99.0067 70.3178 99.0067 70.2391C99.0067 70.1549 98.9697 70.096 98.8962 70.0623C98.8222 70.0232 98.7093 70.0034 98.5563 70.0034C98.5393 70.0034 98.5309 69.9865 98.5309 69.9528C98.5309 69.9192 98.5393 69.9023 98.5563 69.9023L98.9727 69.9108C99.2106 69.9222 99.4231 69.9276 99.61 69.9276C99.7969 69.9276 99.9978 69.9222 100.213 69.9108L100.536 69.9023C100.547 69.9023 100.553 69.9192 100.553 69.9528C100.553 69.9865 100.547 70.0034 100.536 70.0034C100.224 70.0034 99.9499 70.0761 99.712 70.2222C99.474 70.3623 99.2361 70.6041 98.9982 70.9462L97.9701 72.3941C98.0999 72.4224 98.2134 72.4783 98.3099 72.5625C98.4119 72.6413 98.5139 72.7507 98.6158 72.8908C98.7178 73.0255 98.8792 73.2558 99.1002 73.5811C99.366 73.9684 99.576 74.26 99.729 74.4566C99.8819 74.6472 100.037 74.7964 100.196 74.9028C100.36 75.0038 100.545 75.0573 100.749 75.0628ZM107.19 75.0628C107.207 75.0628 107.216 75.0796 107.216 75.1133C107.216 75.1469 107.207 75.1638 107.19 75.1638C107.009 75.1638 106.867 75.1608 106.765 75.1554L106.153 75.1469L105.516 75.1554C105.414 75.1608 105.278 75.1638 105.108 75.1638C105.091 75.1638 105.083 75.1469 105.083 75.1133C105.083 75.0796 105.091 75.0628 105.108 75.0628C105.329 75.0628 105.488 75.0489 105.584 75.0207C105.686 74.9924 105.754 74.9395 105.788 74.8607C105.822 74.7819 105.839 74.6557 105.839 74.4819V70.6852L102.236 75.248C102.219 75.2648 102.183 75.2732 102.126 75.2732C102.092 75.2732 102.061 75.2678 102.032 75.2564C102.004 75.2449 101.99 75.2311 101.99 75.2143V70.5842C101.99 70.4159 101.97 70.2926 101.93 70.2138C101.896 70.135 101.828 70.0821 101.726 70.0539C101.63 70.0202 101.478 70.0034 101.268 70.0034C101.251 70.0034 101.242 69.9865 101.242 69.9528C101.242 69.9192 101.251 69.9023 101.268 69.9023L101.709 69.9108C101.959 69.9222 102.154 69.9276 102.296 69.9276C102.483 69.9276 102.701 69.9222 102.95 69.9108L103.349 69.9023C103.366 69.9023 103.375 69.9192 103.375 69.9528C103.375 69.9865 103.366 70.0034 103.349 70.0034C103.128 70.0034 102.967 70.0202 102.865 70.0539C102.769 70.0821 102.701 70.135 102.661 70.2138C102.627 70.2926 102.61 70.4159 102.61 70.5842V74.4314L106.23 69.8602C106.247 69.838 106.281 69.8266 106.332 69.8266C106.366 69.8266 106.394 69.832 106.417 69.8434C106.445 69.8548 106.459 69.8687 106.459 69.8855V74.4819C106.459 74.6503 106.476 74.7765 106.51 74.8607C106.55 74.9395 106.621 74.9924 106.723 75.0207C106.825 75.0489 106.981 75.0628 107.19 75.0628ZM112.688 72.2005C113.14 72.2396 113.503 72.3911 113.775 72.6551C114.053 72.9131 114.192 73.233 114.192 73.6148C114.192 73.9125 114.115 74.1818 113.962 74.423C113.809 74.6641 113.599 74.8553 113.333 74.9954C113.072 75.1301 112.778 75.1974 112.45 75.1974C112.268 75.1974 112.07 75.189 111.855 75.1722C111.775 75.1668 111.682 75.1608 111.575 75.1554C111.466 75.1499 111.345 75.1469 111.209 75.1469L110.623 75.1554C110.515 75.1608 110.37 75.1638 110.189 75.1638C110.178 75.1638 110.173 75.1469 110.173 75.1133C110.173 75.0796 110.178 75.0628 110.189 75.0628C110.393 75.0628 110.543 75.0489 110.64 75.0207C110.742 74.987 110.81 74.9311 110.844 74.8523C110.883 74.7735 110.903 74.6503 110.903 74.4819V70.5842C110.903 70.4159 110.886 70.2926 110.852 70.2138C110.818 70.135 110.753 70.0821 110.657 70.0539C110.56 70.0202 110.41 70.0034 110.206 70.0034C110.189 70.0034 110.181 69.9865 110.181 69.9528C110.181 69.9192 110.189 69.9023 110.206 69.9023L110.623 69.9108C110.861 69.9222 111.056 69.9276 111.209 69.9276C111.311 69.9276 111.405 69.9246 111.49 69.9192C111.58 69.9138 111.656 69.9077 111.719 69.9023C111.894 69.8855 112.061 69.8771 112.22 69.8771C112.707 69.8771 113.072 69.9781 113.316 70.1801C113.56 70.3822 113.682 70.6516 113.682 70.9883C113.682 71.2577 113.594 71.4988 113.418 71.7123C113.242 71.9197 112.999 72.0827 112.688 72.2005ZM112.05 70.0118C111.908 70.0118 111.801 70.0256 111.727 70.0539C111.659 70.0761 111.609 70.1296 111.575 70.2138C111.541 70.298 111.524 70.4273 111.524 70.6011V72.2005L111.906 72.2089C112.297 72.2089 112.586 72.1025 112.773 71.8891C112.965 71.6756 113.062 71.3954 113.062 71.0472C113.062 70.7327 112.979 70.4832 112.815 70.298C112.651 70.1074 112.396 70.0118 112.05 70.0118ZM112.322 75.0375C112.73 75.0375 113.033 74.9335 113.231 74.726C113.429 74.5126 113.529 74.2125 113.529 73.8253C113.529 73.3989 113.404 73.0562 113.155 72.7982C112.911 72.5343 112.571 72.3996 112.135 72.3941C111.976 72.3887 111.772 72.3941 111.524 72.411V74.4819C111.524 74.622 111.543 74.7314 111.583 74.8102C111.628 74.889 111.707 74.9479 111.821 74.987C111.934 75.0207 112.101 75.0375 112.322 75.0375ZM122.925 75.0628C122.947 75.0628 122.959 75.0796 122.959 75.1133C122.959 75.1469 122.947 75.1638 122.925 75.1638C122.817 75.1638 122.65 75.1584 122.424 75.1469C122.197 75.1355 122.03 75.1301 121.922 75.1301C121.792 75.1301 121.63 75.1355 121.438 75.1469C121.256 75.1584 121.115 75.1638 121.013 75.1638C120.991 75.1638 120.979 75.1469 120.979 75.1133C120.979 75.0796 120.991 75.0628 121.013 75.0628C121.217 75.0628 121.361 75.0459 121.446 75.0122C121.537 74.9732 121.582 74.9058 121.582 74.8102C121.582 74.726 121.543 74.5997 121.463 74.4314L120.733 72.9161H118.702L118.2 74.0694C118.127 74.2378 118.09 74.3923 118.09 74.5324C118.09 74.886 118.365 75.0628 118.914 75.0628C118.943 75.0628 118.957 75.0796 118.957 75.1133C118.957 75.1469 118.943 75.1638 118.914 75.1638C118.812 75.1638 118.665 75.1584 118.472 75.1469C118.257 75.1355 118.07 75.1301 117.912 75.1301C117.77 75.1301 117.597 75.1355 117.393 75.1469C117.223 75.1584 117.079 75.1638 116.96 75.1638C116.931 75.1638 116.917 75.1469 116.917 75.1133C116.917 75.0796 116.931 75.0628 116.96 75.0628C117.118 75.0628 117.252 75.0345 117.359 74.9786C117.473 74.9166 117.58 74.8102 117.682 74.6587C117.784 74.5071 117.898 74.2853 118.022 73.9936L119.815 69.835C119.826 69.8182 119.849 69.8097 119.883 69.8097C119.917 69.8097 119.937 69.8182 119.942 69.835L121.965 74.0105C122.157 74.42 122.322 74.6978 122.458 74.8439C122.593 74.99 122.749 75.0628 122.925 75.0628ZM118.778 72.7393H120.648L119.662 70.7021L118.778 72.7393ZM124.778 74.4482C124.778 74.628 124.801 74.7597 124.846 74.8439C124.891 74.9227 124.982 74.9786 125.118 75.0122C125.254 75.0459 125.466 75.0628 125.755 75.0628C125.772 75.0628 125.78 75.0796 125.78 75.1133C125.78 75.1469 125.772 75.1638 125.755 75.1638C125.523 75.1638 125.342 75.1608 125.211 75.1554L124.472 75.1469L123.894 75.1554C123.792 75.1608 123.648 75.1638 123.461 75.1638C123.444 75.1638 123.435 75.1469 123.435 75.1133C123.435 75.0796 123.444 75.0628 123.461 75.0628C123.665 75.0628 123.815 75.0489 123.911 75.0207C124.008 74.9924 124.073 74.9395 124.107 74.8607C124.141 74.7765 124.158 74.6503 124.158 74.4819V70.5842C124.158 70.4159 124.141 70.2926 124.107 70.2138C124.073 70.135 124.008 70.0821 123.911 70.0539C123.815 70.0202 123.665 70.0034 123.461 70.0034C123.444 70.0034 123.435 69.9865 123.435 69.9528C123.435 69.9192 123.444 69.9023 123.461 69.9023L123.894 69.9108C124.132 69.9222 124.322 69.9276 124.463 69.9276C124.599 69.9276 124.761 69.9192 124.948 69.9023C125.016 69.9023 125.121 69.8993 125.262 69.8939C125.41 69.8825 125.537 69.8771 125.645 69.8771C126.171 69.8771 126.594 69.9949 126.911 70.2306C127.233 70.4609 127.395 70.8115 127.395 71.2829C127.395 71.6479 127.301 71.9564 127.115 72.2089C126.934 72.4615 126.698 72.6497 126.409 72.773C126.126 72.8962 125.831 72.9582 125.526 72.9582C125.362 72.9582 125.223 72.9443 125.109 72.9161C125.098 72.9161 125.092 72.9023 125.092 72.874C125.092 72.8572 125.095 72.8403 125.101 72.8235C125.112 72.8066 125.124 72.8012 125.135 72.8066C125.22 72.8289 125.319 72.8403 125.432 72.8403C125.784 72.8403 126.081 72.7195 126.324 72.4783C126.568 72.2372 126.69 71.8891 126.69 71.4345C126.69 70.9913 126.574 70.6431 126.341 70.3906C126.109 70.138 125.804 70.0118 125.424 70.0118C125.237 70.0118 125.101 70.0256 125.016 70.0539C124.931 70.0761 124.869 70.1296 124.829 70.2138C124.795 70.2926 124.778 70.4213 124.778 70.6011V74.4482ZM131.975 73.901C131.975 73.8842 131.992 73.8788 132.026 73.8842C132.06 73.8842 132.077 73.8926 132.077 73.9094C132.026 74.2744 132 74.6503 132 75.0375C132 75.0826 131.989 75.1163 131.966 75.1385C131.949 75.1554 131.915 75.1638 131.864 75.1638H128.27C128.259 75.1638 128.253 75.1469 128.253 75.1133C128.253 75.0796 128.259 75.0628 128.27 75.0628C128.48 75.0628 128.632 75.0489 128.729 75.0207C128.825 74.9924 128.89 74.9395 128.924 74.8607C128.958 74.7765 128.975 74.6503 128.975 74.4819V70.5842C128.975 70.4159 128.958 70.2926 128.924 70.2138C128.89 70.135 128.825 70.0821 128.729 70.0539C128.632 70.0202 128.48 70.0034 128.27 70.0034C128.259 70.0034 128.253 69.9865 128.253 69.9528C128.253 69.9192 128.259 69.9023 128.27 69.9023H131.72C131.771 69.9023 131.796 69.9276 131.796 69.9781L131.813 71.0304C131.813 71.0472 131.796 71.0556 131.762 71.0556C131.734 71.0556 131.72 71.0472 131.72 71.0304C131.686 70.7273 131.581 70.4946 131.406 70.3317C131.23 70.1687 131 70.0875 130.717 70.0875H130.25C129.984 70.0875 129.808 70.1242 129.723 70.197C129.638 70.2697 129.596 70.4104 129.596 70.6179V72.3352H130.573C130.856 72.3352 131.06 72.2877 131.185 72.1921C131.315 72.0965 131.38 71.9426 131.38 71.7291C131.38 71.7177 131.397 71.7123 131.431 71.7123C131.465 71.7123 131.482 71.7177 131.482 71.7291L131.474 72.4278C131.474 72.5908 131.476 72.714 131.482 72.7982L131.491 73.2191C131.491 73.2306 131.474 73.236 131.44 73.236C131.406 73.236 131.389 73.2306 131.389 73.2191C131.389 72.972 131.323 72.7952 131.193 72.6888C131.063 72.5763 130.85 72.5204 130.556 72.5204H129.596V74.4482C129.596 74.5943 129.613 74.7038 129.647 74.7765C129.681 74.8493 129.74 74.9028 129.825 74.9365C129.91 74.9647 130.04 74.9786 130.216 74.9786H130.819C131.119 74.9786 131.369 74.886 131.567 74.7008C131.765 74.5102 131.901 74.2432 131.975 73.901ZM138.815 75.0628C138.832 75.0628 138.841 75.0796 138.841 75.1133C138.841 75.1469 138.832 75.1638 138.815 75.1638C138.634 75.1638 138.492 75.1608 138.39 75.1554L137.787 75.1469L137.133 75.1554C137.037 75.1608 136.903 75.1638 136.733 75.1638C136.716 75.1638 136.708 75.1469 136.708 75.1133C136.708 75.0796 136.716 75.0628 136.733 75.0628C136.954 75.0628 137.113 75.0489 137.209 75.0207C137.311 74.9924 137.379 74.9395 137.413 74.8607C137.453 74.7765 137.473 74.6503 137.473 74.4819V72.5204H134.303V74.4819C134.303 74.6503 134.32 74.7765 134.354 74.8607C134.394 74.9395 134.462 74.9924 134.558 75.0207C134.66 75.0489 134.821 75.0628 135.042 75.0628C135.054 75.0628 135.059 75.0796 135.059 75.1133C135.059 75.1469 135.054 75.1638 135.042 75.1638C134.861 75.1638 134.719 75.1608 134.617 75.1554L133.98 75.1469L133.385 75.1554C133.283 75.1608 133.139 75.1638 132.952 75.1638C132.941 75.1638 132.935 75.1469 132.935 75.1133C132.935 75.0796 132.941 75.0628 132.952 75.0628C133.168 75.0628 133.323 75.0489 133.419 75.0207C133.521 74.9924 133.589 74.9395 133.623 74.8607C133.663 74.7765 133.683 74.6503 133.683 74.4819V70.5842C133.683 70.4159 133.663 70.2926 133.623 70.2138C133.589 70.135 133.521 70.0821 133.419 70.0539C133.323 70.0202 133.171 70.0034 132.961 70.0034C132.95 70.0034 132.944 69.9865 132.944 69.9528C132.944 69.9192 132.95 69.9023 132.961 69.9023L133.394 69.9108C133.632 69.9222 133.827 69.9276 133.98 69.9276C134.15 69.9276 134.366 69.9222 134.626 69.9108L135.042 69.9023C135.054 69.9023 135.059 69.9192 135.059 69.9528C135.059 69.9865 135.054 70.0034 135.042 70.0034C134.827 70.0034 134.668 70.0202 134.566 70.0539C134.465 70.0875 134.394 70.1465 134.354 70.2306C134.32 70.3094 134.303 70.4327 134.303 70.6011V72.3352H137.473V70.6011C137.473 70.4327 137.453 70.3094 137.413 70.2306C137.379 70.1465 137.311 70.0875 137.209 70.0539C137.107 70.0202 136.949 70.0034 136.733 70.0034C136.716 70.0034 136.708 69.9865 136.708 69.9528C136.708 69.9192 136.716 69.9023 136.733 69.9023L137.133 69.9108C137.382 69.9222 137.6 69.9276 137.787 69.9276C137.94 69.9276 138.141 69.9222 138.39 69.9108L138.815 69.9023C138.832 69.9023 138.841 69.9192 138.841 69.9528C138.841 69.9865 138.832 70.0034 138.815 70.0034C138.6 70.0034 138.441 70.0202 138.339 70.0539C138.243 70.0821 138.175 70.135 138.135 70.2138C138.101 70.2926 138.084 70.4159 138.084 70.5842V74.4819C138.084 74.6503 138.101 74.7765 138.135 74.8607C138.175 74.9395 138.243 74.9924 138.339 75.0207C138.441 75.0489 138.6 75.0628 138.815 75.0628ZM145.025 74.9617C145.07 74.9617 145.096 74.9671 145.101 74.9786C145.113 74.984 145.118 75.0122 145.118 75.0628C145.118 75.091 145.113 75.1668 145.101 75.29C145.062 75.6045 145.042 76.0002 145.042 76.477C145.042 76.5053 145.025 76.5191 144.991 76.5191C144.957 76.5191 144.94 76.5053 144.94 76.477C144.94 76.0224 144.821 75.6887 144.583 75.4752C144.345 75.2678 143.966 75.1638 143.444 75.1638H140.971C140.116 75.1638 139.688 75.6015 139.688 76.477C139.688 76.5053 139.671 76.5191 139.637 76.5191C139.609 76.5191 139.595 76.5053 139.595 76.477C139.595 76.011 139.573 75.6436 139.527 75.3742C139.51 75.2678 139.501 75.1638 139.501 75.0628C139.501 75.0177 139.505 74.99 139.51 74.9786C139.522 74.9671 139.549 74.9617 139.595 74.9617H140.147L142.263 69.835C142.269 69.8182 142.289 69.8097 142.323 69.8097C142.357 69.8097 142.377 69.8182 142.382 69.835L144.574 74.9617H145.025ZM140.377 74.9617H143.894L142.11 70.761L140.377 74.9617ZM150.253 69.9023C150.27 69.9023 150.279 69.9192 150.279 69.9528C150.279 69.9865 150.27 70.0034 150.253 70.0034C150.106 70.0034 149.961 70.0623 149.82 70.1801C149.684 70.2926 149.565 70.4525 149.463 70.66L147.9 73.9684C147.826 74.1367 147.764 74.2768 147.713 74.3893C147.667 74.4957 147.628 74.5859 147.594 74.6587C147.543 74.7819 147.497 74.886 147.458 74.9702C147.418 75.0489 147.378 75.1018 147.339 75.1301C147.305 75.1523 147.254 75.1638 147.186 75.1638H145.835C145.823 75.1638 145.818 75.1469 145.818 75.1133C145.818 75.0796 145.823 75.0628 145.835 75.0628C146.243 75.0628 146.602 74.9756 146.914 74.8018C147.231 74.622 147.483 74.3442 147.67 73.9684L145.835 70.6011C145.71 70.3708 145.597 70.2138 145.495 70.1296C145.398 70.0454 145.266 70.0034 145.096 70.0034C145.084 70.0034 145.079 69.9865 145.079 69.9528C145.079 69.9192 145.084 69.9023 145.096 69.9023L145.419 69.9108C145.588 69.9222 145.747 69.9276 145.894 69.9276C146.138 69.9276 146.384 69.9222 146.634 69.9108C146.713 69.9053 146.821 69.9023 146.956 69.9023C146.967 69.9023 146.973 69.9192 146.973 69.9528C146.973 69.9865 146.967 70.0034 146.956 70.0034C146.605 70.0034 146.43 70.0929 146.43 70.2727C146.43 70.3347 146.455 70.4159 146.506 70.5169L148.01 73.2612L149.251 70.6263C149.302 70.5253 149.327 70.4327 149.327 70.3485C149.327 70.1182 149.109 70.0034 148.673 70.0034C148.661 70.0034 148.656 69.9865 148.656 69.9528C148.656 69.9192 148.661 69.9023 148.673 69.9023L149.03 69.9108C149.234 69.9222 149.412 69.9276 149.565 69.9276C149.678 69.9276 149.797 69.9222 149.922 69.9108L150.253 69.9023Z" fill="#F1F3F6"/>
<path d="M25.4005 59.2351C25.6012 59.2351 25.7141 59.2599 25.7391 59.3097C25.7893 59.3345 25.8144 59.4588 25.8144 59.6825C25.8144 59.8068 25.7893 60.1425 25.7391 60.6891C25.5635 62.0811 25.4757 63.8333 25.4757 65.9457C25.4757 66.0702 25.4005 66.1321 25.2499 66.1321C25.0994 66.1321 25.0242 66.0702 25.0242 65.9457C25.0242 63.9325 24.4973 62.4539 23.4437 61.5092C22.3901 60.5898 20.7093 60.1299 18.4013 60.1299H7.45092C3.66283 60.1299 1.76878 62.0685 1.76878 65.9457C1.76878 66.0702 1.69352 66.1321 1.543 66.1321C1.41756 66.1321 1.35485 66.0702 1.35485 65.9457C1.35485 63.8826 1.2545 62.2549 1.05381 61.0619C0.978548 60.5899 0.940918 60.1298 0.940918 59.6825C0.940918 59.4836 0.953463 59.3594 0.978548 59.3097C1.02872 59.2599 1.15415 59.2351 1.35485 59.2351H3.8008L13.1707 36.5309C13.1958 36.4564 13.2836 36.4191 13.4341 36.4191C13.5846 36.4191 13.6724 36.4564 13.6975 36.5309L23.4061 59.2351H25.4005ZM4.81681 59.2351H20.3957L12.4933 40.6319L4.81681 59.2351ZM53.9585 59.6825C54.0588 59.6825 54.109 59.757 54.109 59.9062C54.109 60.0553 54.0588 60.1299 53.9585 60.1299C53.4818 60.1299 52.7417 60.105 51.7383 60.0553C50.7348 60.0056 49.9947 59.9807 49.5181 59.9807C48.9411 59.9807 48.2261 60.0056 47.3732 60.0553C46.5704 60.105 45.9432 60.1299 45.4917 60.1299C45.3913 60.1299 45.3412 60.0553 45.3412 59.9062C45.3412 59.757 45.3913 59.6825 45.4917 59.6825C46.3948 59.6825 47.0345 59.6079 47.4108 59.4588C47.8122 59.2848 48.0129 58.9866 48.0129 58.564C48.0129 58.1912 47.8373 57.632 47.4861 56.8864L44.2499 50.1758H35.2563L33.0361 55.2833C32.71 56.0289 32.547 56.7124 32.547 57.3338C32.547 58.8996 33.7636 59.6825 36.1971 59.6825C36.3225 59.6825 36.3852 59.757 36.3852 59.9062C36.3852 60.0553 36.3225 60.1299 36.1971 60.1299C35.7455 60.1299 35.0932 60.105 34.2403 60.0553C33.287 60.0056 32.4591 59.9807 31.7567 59.9807C31.1295 59.9807 30.3644 60.0056 29.4613 60.0553C28.7087 60.105 28.069 60.1299 27.5422 60.1299C27.4167 60.1299 27.354 60.0553 27.354 59.9062C27.354 59.757 27.4167 59.6825 27.5422 59.6825C28.2446 59.6825 28.8341 59.5582 29.3108 59.3097C29.8125 59.0363 30.2891 58.564 30.7407 57.893C31.1923 57.2219 31.694 56.2402 32.2459 54.9478L40.1859 36.5309C40.236 36.4564 40.3364 36.4191 40.4869 36.4191C40.6374 36.4191 40.7252 36.4564 40.7503 36.5309L49.7063 55.0223C50.5592 56.8367 51.2867 58.0669 51.8888 58.7132C52.4909 59.3594 53.1807 59.6825 53.9585 59.6825ZM35.595 49.3929H43.8736L39.5085 40.3709L35.595 49.3929ZM74.6436 59.6825C74.6934 59.6825 74.7189 59.757 74.7189 59.9062C74.7189 60.0553 74.6934 60.1299 74.6436 60.1299C73.8407 60.1299 73.201 60.1174 72.7245 60.0926L70.0904 60.0553L67.381 60.0926C66.9295 60.1174 66.2898 60.1299 65.4619 60.1299C65.3866 60.1299 65.349 60.0553 65.349 59.9062C65.349 59.757 65.3866 59.6825 65.4619 59.6825C66.4148 59.6825 67.1049 59.6204 67.5316 59.4961C67.9831 59.3718 68.2714 59.1357 68.397 58.7877C68.5476 58.4398 68.6228 57.8805 68.6228 57.1101V48.871C66.6157 50.2628 64.5084 50.9587 62.301 50.9587C60.2186 50.9587 58.5378 50.4119 57.2584 49.3183C55.979 48.2247 55.3393 46.7584 55.3393 44.9192V39.849C55.3393 39.1033 55.264 38.5566 55.1135 38.2086C54.963 37.8606 54.6745 37.6245 54.248 37.5003C53.8467 37.3511 53.1944 37.2766 52.2913 37.2766C52.216 37.2766 52.1784 37.202 52.1784 37.0529C52.1784 36.9038 52.216 36.8292 52.2913 36.8292L53.7212 36.8665C54.6745 36.9162 55.6278 36.941 56.5811 36.941C57.434 36.941 58.3623 36.9162 59.3657 36.8665L60.8334 36.8292C60.8832 36.8292 60.9087 36.9038 60.9087 37.0529C60.9087 37.202 60.8832 37.2766 60.8334 37.2766C60.0305 37.2766 59.4284 37.3511 59.027 37.5003C58.6507 37.6494 58.3873 37.9103 58.2368 38.2832C58.1114 38.6311 58.0487 39.1779 58.0487 39.9235V43.6143C58.0487 45.7269 58.5002 47.33 59.4033 48.4236C60.3065 49.5172 61.5981 50.064 63.2794 50.064C65.1105 50.064 66.8918 49.4799 68.6228 48.3118V39.9235C68.6228 39.1779 68.5597 38.6311 68.4347 38.2832C68.309 37.9103 68.0584 37.6494 67.6821 37.5003C67.3058 37.3511 66.7037 37.2766 65.8758 37.2766C65.8255 37.2766 65.8006 37.202 65.8006 37.0529C65.8006 36.9038 65.8255 36.8292 65.8758 36.8292L67.6068 36.8665C68.6101 36.9162 69.4379 36.941 70.0904 36.941C70.7926 36.941 71.6709 36.9162 72.7245 36.8665L74.6436 36.8292C74.6934 36.8292 74.7189 36.9038 74.7189 37.0529C74.7189 37.202 74.6934 37.2766 74.6436 37.2766C73.6901 37.2766 72.9879 37.3511 72.5364 37.5003C72.0848 37.6245 71.771 37.8606 71.5956 38.2086C71.4451 38.5566 71.3698 39.1033 71.3698 39.849V57.1101C71.3698 57.8557 71.4451 58.4149 71.5956 58.7877C71.771 59.1357 72.0848 59.3718 72.5364 59.4961C72.9879 59.6204 73.6901 59.6825 74.6436 59.6825ZM103.126 59.6825C103.226 59.6825 103.276 59.757 103.276 59.9062C103.276 60.0553 103.226 60.1299 103.126 60.1299C102.65 60.1299 101.909 60.105 100.906 60.0553C99.9025 60.0056 99.162 59.9807 98.6856 59.9807C98.1084 59.9807 97.3934 60.0056 96.5407 60.0553C95.7377 60.105 95.1108 60.1299 94.6592 60.1299C94.559 60.1299 94.5087 60.0553 94.5087 59.9062C94.5087 59.757 94.559 59.6825 94.6592 59.6825C95.5623 59.6825 96.202 59.6079 96.5783 59.4588C96.9795 59.2848 97.1804 58.9866 97.1804 58.564C97.1804 58.1912 97.005 57.632 96.6536 56.8864L93.4174 50.1758H84.4238L82.2036 55.2833C81.8777 56.0289 81.7144 56.7124 81.7144 57.3338C81.7144 58.8996 82.9314 59.6825 85.3646 59.6825C85.4902 59.6825 85.5527 59.757 85.5527 59.9062C85.5527 60.0553 85.4902 60.1299 85.3646 60.1299C84.913 60.1299 84.2605 60.105 83.4078 60.0553C82.4543 60.0056 81.6264 59.9807 80.9242 59.9807C80.2972 59.9807 79.5319 60.0056 78.6288 60.0553C77.8762 60.105 77.2365 60.1299 76.7096 60.1299C76.584 60.1299 76.5215 60.0553 76.5215 59.9062C76.5215 59.757 76.584 59.6825 76.7096 59.6825C77.4119 59.6825 78.0018 59.5582 78.4783 59.3097C78.9802 59.0363 79.4566 58.564 79.9082 57.893C80.3598 57.2219 80.8617 56.2402 81.4134 54.9478L89.3533 36.5309C89.4037 36.4564 89.5039 36.4191 89.6544 36.4191C89.8049 36.4191 89.8929 36.4564 89.9178 36.5309L98.8738 55.0223C99.7265 56.8367 100.454 58.0669 101.056 58.7132C101.658 59.3594 102.348 59.6825 103.126 59.6825ZM84.7625 49.3929H93.0411L88.676 40.3709L84.7625 49.3929ZM130.374 59.6825C130.475 59.6825 130.524 59.757 130.524 59.9062C130.524 60.0553 130.475 60.1299 130.374 60.1299C129.897 60.1299 129.157 60.105 128.154 60.0553C127.15 60.0056 126.41 59.9807 125.933 59.9807C125.357 59.9807 124.642 60.0056 123.788 60.0553C122.986 60.105 122.359 60.1299 121.907 60.1299C121.807 60.1299 121.756 60.0553 121.756 59.9062C121.756 59.757 121.807 59.6825 121.907 59.6825C122.81 59.6825 123.45 59.6079 123.826 59.4588C124.228 59.2848 124.428 58.9866 124.428 58.564C124.428 58.1912 124.253 57.632 123.901 56.8864L115.924 40.3709L109.451 55.2833C109.126 56.0289 108.962 56.7124 108.962 57.3338C108.962 58.8996 110.179 59.6825 112.612 59.6825C112.738 59.6825 112.801 59.757 112.801 59.9062C112.801 60.0553 112.738 60.1299 112.612 60.1299C112.161 60.1299 111.509 60.105 110.656 60.0553C109.703 60.0056 108.875 59.9807 108.172 59.9807C107.545 59.9807 106.78 60.0056 105.877 60.0553C105.124 60.105 104.484 60.1299 103.957 60.1299C103.832 60.1299 103.769 60.0553 103.769 59.9062C103.769 59.757 103.832 59.6825 103.957 59.6825C104.66 59.6825 105.25 59.5582 105.726 59.3097C106.228 59.0363 106.704 58.564 107.156 57.893C107.608 57.2219 108.11 56.2402 108.661 54.9478L116.601 36.5309C116.652 36.4564 116.752 36.4191 116.902 36.4191C117.053 36.4191 117.141 36.4564 117.166 36.5309L126.122 55.0223C126.975 56.8367 127.702 58.0669 128.304 58.7132C128.906 59.3594 129.596 59.6825 130.374 59.6825ZM149.231 54.5377C149.231 54.4631 149.306 54.4383 149.456 54.4631C149.607 54.4631 149.682 54.5004 149.682 54.575C149.456 56.1905 149.344 57.8557 149.344 59.5706C149.344 59.7695 149.293 59.9186 149.193 60.018C149.118 60.0926 148.967 60.1299 148.741 60.1299H132.824C132.774 60.1299 132.749 60.0553 132.749 59.9062C132.749 59.757 132.774 59.6825 132.824 59.6825C133.752 59.6825 134.429 59.6204 134.856 59.4961C135.282 59.3718 135.571 59.1357 135.721 58.7877C135.872 58.4149 135.947 57.8557 135.947 57.1101V39.849C135.947 39.1033 135.872 38.5566 135.721 38.2086C135.571 37.8606 135.282 37.6245 134.856 37.5003C134.429 37.3511 133.752 37.2766 132.824 37.2766C132.774 37.2766 132.749 37.202 132.749 37.0529C132.749 36.9038 132.774 36.8292 132.824 36.8292H148.102C148.328 36.8292 148.44 36.941 148.44 37.1647L148.516 41.8249C148.516 41.8994 148.44 41.9367 148.29 41.9367C148.164 41.9367 148.102 41.8994 148.102 41.8249C147.951 40.4827 147.487 39.4513 146.709 38.7305C145.931 38.0097 144.915 37.6494 143.661 37.6494H141.592C140.412 37.6494 139.635 37.811 139.259 38.134C138.882 38.4571 138.694 39.0785 138.694 39.9981V47.6034H143.022C144.276 47.6034 145.179 47.3922 145.731 46.9696C146.308 46.5471 146.597 45.8637 146.597 44.9192C146.597 44.8695 146.672 44.8446 146.822 44.8446C146.973 44.8446 147.048 44.8695 147.048 44.9192L147.01 48.0135C147.01 48.7343 147.023 49.2811 147.048 49.6539L147.086 51.5179C147.086 51.5677 147.01 51.5925 146.86 51.5925C146.709 51.5925 146.634 51.5677 146.634 51.5179C146.634 50.4243 146.345 49.6414 145.769 49.1692C145.192 48.6721 144.251 48.4236 142.946 48.4236H138.694V56.961C138.694 57.6072 138.77 58.0918 138.92 58.4149C139.071 58.738 139.334 58.9741 139.71 59.1233C140.087 59.2475 140.663 59.3097 141.441 59.3097H144.113C145.442 59.3097 146.546 58.8996 147.424 58.0794C148.302 57.2344 148.904 56.0538 149.231 54.5377ZM159.58 37.5375C158.025 37.5375 156.82 37.9601 155.968 38.8051C155.14 39.6253 154.538 40.9798 154.161 42.8687C154.137 42.9433 154.049 42.9806 153.898 42.9806C153.772 42.9557 153.71 42.9185 153.71 42.8687C153.81 42.1728 153.923 41.0544 154.049 39.5134C154.174 37.9725 154.237 36.8044 154.237 36.009C154.237 35.8847 154.312 35.8226 154.462 35.8226C154.613 35.8226 154.688 35.8847 154.688 36.009C154.688 36.5558 155.366 36.8292 156.72 36.8292C158.878 36.9038 161.399 36.941 164.284 36.941C165.764 36.941 167.332 36.9162 168.988 36.8665L171.547 36.8292C172.45 36.8292 173.114 36.7671 173.541 36.6428C173.992 36.5185 174.281 36.27 174.406 35.8972C174.431 35.7978 174.507 35.748 174.632 35.748C174.758 35.748 174.82 35.7978 174.82 35.8972C174.745 36.618 174.67 37.7364 174.595 39.2525C174.519 40.7437 174.482 41.9491 174.482 42.8687C174.482 42.9185 174.406 42.9433 174.256 42.9433C174.13 42.9433 174.055 42.9185 174.03 42.8687C173.93 40.9549 173.478 39.588 172.675 38.7678C171.898 37.9476 170.681 37.5375 169.025 37.5375C168.022 37.5375 167.294 37.5873 166.843 37.6867C166.416 37.7861 166.115 37.9974 165.94 38.3204C165.789 38.6435 165.714 39.1779 165.714 39.9235V57.1101C165.714 57.8805 165.789 58.4398 165.94 58.7877C166.115 59.1357 166.442 59.3718 166.918 59.4961C167.42 59.6204 168.21 59.6825 169.289 59.6825C169.339 59.6825 169.364 59.757 169.364 59.9062C169.364 60.0553 169.339 60.1299 169.289 60.1299C168.436 60.1299 167.759 60.1174 167.257 60.0926L164.284 60.0553L161.424 60.0926C160.922 60.1174 160.22 60.1299 159.317 60.1299C159.266 60.1299 159.241 60.0553 159.241 59.9062C159.241 59.757 159.266 59.6825 159.317 59.6825C160.37 59.6825 161.148 59.6204 161.65 59.4961C162.152 59.3718 162.49 59.1357 162.666 58.7877C162.841 58.4149 162.929 57.8557 162.929 57.1101V39.849C162.929 39.1282 162.841 38.6187 162.666 38.3204C162.515 37.9974 162.214 37.7861 161.763 37.6867C161.336 37.5873 160.609 37.5375 159.58 37.5375ZM190.213 60.5772C187.88 60.5772 185.799 60.0428 183.967 58.9741C182.161 57.8805 180.756 56.4142 179.752 54.575C178.774 52.7109 178.285 50.6853 178.285 48.4982C178.285 45.9382 178.937 43.751 180.241 41.9367C181.546 40.0975 183.214 38.7181 185.246 37.7985C187.304 36.8789 189.398 36.4191 191.531 36.4191C193.914 36.4191 196.008 36.9783 197.815 38.0968C199.621 39.1904 201.001 40.6443 201.954 42.4586C202.932 44.273 203.422 46.1992 203.422 48.2372C203.422 50.4989 202.82 52.5742 201.615 54.4631C200.411 56.352 198.793 57.8433 196.761 58.9369C194.755 60.0305 192.572 60.5772 190.213 60.5772ZM191.531 59.757C193.186 59.757 194.667 59.3469 195.971 58.5268C197.301 57.7066 198.342 56.5136 199.094 54.9478C199.872 53.3571 200.261 51.4682 200.261 49.2811C200.261 46.9696 199.835 44.9067 198.981 43.0924C198.153 41.2781 196.962 39.8614 195.406 38.8424C193.851 37.8233 192.045 37.3139 189.988 37.3139C187.304 37.3139 185.209 38.1961 183.703 39.9608C182.198 41.7006 181.446 44.1114 181.446 47.1933C181.446 49.5296 181.872 51.6546 182.725 53.5684C183.578 55.4822 184.77 56.9982 186.3 58.1167C187.831 59.2103 189.574 59.757 191.531 59.757Z" fill="#F1F3F6"/>
<path d="M146.951 6.06803C144.937 3.83698 142.11 2.60146 138.997 2.59168C138.979 2.59168 138.964 2.59168 138.949 2.59168C132.668 2.59168 129.064 6.37326 125.911 10.5802C125.165 11.4946 123.719 12.7229 121.858 11.6809C120.764 11.0704 120.376 9.6882 120.986 8.60386C121.442 7.79745 122.479 7.50606 123.296 7.96371C123.579 8.12101 123.784 8.383 123.882 8.69556C123.969 9.00933 123.932 9.33818 123.767 9.61977C123.656 9.81333 123.476 9.9372 123.281 9.99794C123.198 9.56391 122.79 9.26115 122.347 9.32718C121.888 9.39404 121.575 9.8158 121.645 10.2697C121.65 10.3158 121.698 10.3378 121.707 10.3789C121.655 10.6406 121.731 10.9123 121.975 11.0501C123.005 11.6194 124.309 11.2587 124.891 10.2424C125.222 9.66295 125.301 8.98936 125.121 8.34921C124.948 7.709 124.528 7.17804 123.934 6.85286C122.496 6.05498 120.678 6.55744 119.877 7.97838C118.915 9.67317 119.521 11.8304 121.234 12.786C121.908 13.1593 122.597 13.3443 123.283 13.3443C123.508 13.3443 123.729 13.2933 123.949 13.2559C123.306 14.1491 122.665 15.0439 121.998 15.8752C120.523 17.7212 119.253 19.2623 118.018 20.4433C117.87 20.4555 117.733 20.4901 117.623 20.5945C115.05 22.9767 112.373 23.2994 110.094 21.5027C108.32 20.0985 108.017 17.5276 109.43 15.766C110.52 14.4152 112.518 14.1857 113.886 15.2652C114.384 15.6625 114.705 16.2277 114.774 16.863C114.847 17.4934 114.667 18.1161 114.266 18.6153C113.998 18.96 113.598 19.1662 113.164 19.2453C113.219 19.0965 113.259 18.9376 113.259 18.7689C113.259 18.0248 112.653 17.4143 111.892 17.4143C111.138 17.4143 110.53 18.0248 110.53 18.7689C110.53 19.0121 110.607 19.2253 110.725 19.4237C110.73 19.6022 110.793 19.7762 110.951 19.8952C111.592 20.4013 112.39 20.6344 113.215 20.5354C114.029 20.4433 114.763 20.0439 115.276 19.4086C115.884 18.6417 116.168 17.689 116.057 16.7187C115.947 15.7485 115.466 14.8765 114.7 14.2721C112.781 12.7595 109.969 13.07 108.443 14.9755C106.612 17.2595 106.98 20.5847 109.245 22.438C108.241 21.9588 107.365 21.2615 106.69 20.3288C105.582 18.7978 105.141 16.8622 105.477 15.0138C105.738 13.5908 106.536 12.354 107.737 11.5277C108.934 10.7037 110.38 10.3863 111.825 10.643C112.165 10.6939 112.506 10.4755 112.566 10.1308C112.624 9.78441 112.398 9.45471 112.05 9.39158C110.285 9.07415 108.489 9.46205 107.006 10.4808C106.181 11.0525 105.523 11.7995 105.029 12.6434V10.3259C107.647 10.0391 109.691 7.85939 109.691 5.19069C109.691 3.80357 109.144 2.49958 108.158 1.51955C107.168 0.538301 105.853 0 104.451 0C101.561 0 99.2113 2.33007 99.2113 5.1911C99.2113 7.81375 101.189 9.96246 103.746 10.3137V12.6214C102.353 10.2628 99.5961 8.87608 96.7466 9.3944C96.3946 9.45513 96.1621 9.78519 96.2258 10.1336C96.2871 10.4763 96.6215 10.6968 96.9718 10.6463C99.9257 10.1177 102.781 12.0765 103.317 15.0146C103.653 16.8683 103.212 18.8035 102.106 20.3345C101.43 21.2676 100.55 21.9648 99.5464 22.4437C101.819 20.5904 102.187 17.2627 100.346 14.9787C98.8162 13.0757 96.0152 12.7603 94.0937 14.2754C93.3229 14.8822 92.8403 15.7542 92.7274 16.722C92.617 17.6898 92.8913 18.6426 93.5092 19.4095C94.5634 20.7248 96.5081 20.9453 97.8379 19.898C97.9944 19.779 98.0533 19.6079 98.0673 19.4241C98.1771 19.2257 98.2536 19.0121 98.2536 18.7738C98.2536 18.0248 97.6461 17.4193 96.8898 17.4193C96.1384 17.4193 95.5279 18.0248 95.5279 18.7738C95.5279 18.9376 95.5716 19.0965 95.6225 19.2481C95.2044 19.1756 94.805 18.9722 94.5124 18.6177C94.1179 18.1185 93.9298 17.4987 94.0099 16.863C94.0888 16.233 94.3971 15.665 94.9051 15.2701C96.2713 14.1886 98.2688 14.4205 99.3546 15.7693C100.767 17.528 100.476 20.1039 98.6894 21.5085C96.4097 23.3023 93.7404 22.9848 91.1658 20.5953C91.0541 20.4963 90.9115 20.4612 90.7749 20.4514C89.5441 19.2628 88.2665 17.722 86.7928 15.8781C86.1228 15.048 85.4812 14.1524 84.8379 13.2591C85.0588 13.2986 85.2791 13.3472 85.5055 13.3472C86.1871 13.3472 86.8766 13.1646 87.5497 12.7888C89.2624 11.8361 89.8724 9.67846 88.9104 7.97881C88.105 6.56315 86.2818 6.05823 84.8531 6.85574C84.2661 7.18093 83.8461 7.71189 83.6665 8.35204C83.4868 8.99225 83.5657 9.66619 83.8977 10.2428C84.1745 10.7351 84.6303 11.0917 85.185 11.244C85.7313 11.3977 86.3085 11.3272 86.808 11.0505C87.0574 10.9128 87.1242 10.6434 87.075 10.3842C87.0878 10.3382 87.1309 10.3186 87.1412 10.2701C87.2001 9.81616 86.8875 9.39645 86.4341 9.3276C85.9905 9.26157 85.585 9.5668 85.5061 10.0012C85.3004 9.93516 85.125 9.80762 85.0151 9.62302C84.8561 9.33902 84.8185 9.01017 84.9046 8.69641C84.9896 8.38342 85.1954 8.1218 85.4873 7.96449C86.2976 7.51424 87.347 7.79823 87.7949 8.60224C88.4109 9.68904 88.0243 11.0713 86.9233 11.6817C85.0752 12.7102 83.6459 11.5167 82.8969 10.6071C79.7426 6.38871 76.1235 2.59494 69.832 2.59494C69.8174 2.59494 69.8022 2.59494 69.7834 2.59494C66.6698 2.60472 63.8464 3.84065 61.8314 6.07128C59.6099 8.53502 58.5607 11.9991 58.9535 15.5786C59.2451 18.2681 60.5839 20.68 62.7151 22.3773C64.5492 23.8414 66.7803 24.6104 69.0933 24.6104C69.1735 24.6104 69.2524 24.6006 69.3422 24.6006C69.3549 24.6006 69.3659 24.6152 69.381 24.6152C69.4108 24.6152 69.4351 24.6152 69.4624 24.6104C69.5012 24.6054 69.5249 24.5953 69.5601 24.5904C69.781 24.5806 70.0038 24.5806 70.2277 24.5529C74.7797 24.0643 78.0809 19.9926 77.5874 15.4787C77.185 11.8003 73.8548 9.13037 70.1179 9.53096C69.7658 9.56962 69.5115 9.88176 69.5504 10.2294C69.5916 10.5778 69.866 10.8349 70.2556 10.7942C73.2509 10.4617 75.9772 12.6316 76.305 15.6128C76.5568 17.8757 75.6592 19.9849 74.1121 21.4286C74.7482 20.1063 74.9491 18.5056 74.5946 16.863C74.3003 15.4633 73.4688 14.2652 72.2616 13.4849C71.0483 12.7069 69.6062 12.4404 68.1939 12.7379C67.0273 12.9837 66.0265 13.6625 65.3801 14.6536C64.7343 15.6426 64.5134 16.8182 64.7616 17.9596C64.9619 18.9127 65.5294 19.7314 66.3494 20.2624C67.176 20.7978 68.1575 20.9865 69.1316 20.7782C69.9394 20.6046 70.6319 20.1385 71.0841 19.451C71.4404 18.9074 71.5496 18.2722 71.515 17.6372C71.515 17.6173 71.5302 17.5973 71.5302 17.5725C71.5302 17.5378 71.515 17.5182 71.5102 17.4832C71.4986 17.374 71.5302 17.2701 71.5053 17.1609C71.4938 17.1161 71.4513 17.1014 71.4301 17.0566C71.2358 16.5651 70.7497 16.213 70.1889 16.2029C69.4326 16.1931 68.8135 16.7884 68.8038 17.5374C68.7935 18.2 69.2833 18.7359 69.9194 18.8626C69.6548 19.2 69.3033 19.4433 68.8779 19.5374C68.2479 19.6764 67.6015 19.5521 67.0644 19.2053C66.5284 18.8553 66.1564 18.3243 66.0307 17.7062C65.8596 16.8875 66.0083 16.0533 66.4696 15.3491C66.9314 14.6454 67.6416 14.1605 68.4731 13.9841C69.5504 13.7559 70.6501 13.9592 71.5739 14.5533C72.494 15.1479 73.1252 16.0635 73.3559 17.1275C73.7079 18.7779 73.436 20.3805 72.619 21.5272C71.9381 22.4751 70.8711 23.0729 69.5577 23.2966C67.3697 23.4058 65.252 22.7603 63.5277 21.3907C61.6602 19.9066 60.4909 17.7998 60.238 15.4454C59.8863 12.2261 60.8202 9.12141 62.7976 6.9258C64.5644 4.96656 67.054 3.88099 69.7962 3.87407C69.812 3.87407 69.8265 3.87407 69.8411 3.87407C75.4528 3.87407 78.8177 7.33288 81.7565 11.2322C81.7625 11.2384 81.7565 11.2461 81.7625 11.2534C81.7832 11.2758 81.8081 11.293 81.8166 11.3166C82.3476 12.0199 82.8678 12.7322 83.3782 13.4453C83.5136 13.634 83.6501 13.8064 83.7824 13.9926C82.767 13.799 81.7364 14.0102 80.7799 14.6401C79.1442 15.7208 78.6975 17.909 79.7791 19.5272C80.3514 20.3757 81.2982 20.8373 82.262 20.8373C82.8295 20.8373 83.4007 20.6784 83.9093 20.3463C84.4701 19.9763 84.8494 19.4184 84.986 18.7632C85.1159 18.1128 84.986 17.4478 84.6115 16.8969C83.9578 15.9343 82.6262 15.6711 81.6527 16.3112C81.4548 16.4453 81.3935 16.6634 81.4081 16.8818C81.3881 16.9412 81.328 16.9808 81.3231 17.0456C81.2825 17.5019 81.6211 17.8993 82.0854 17.9437C82.5164 17.9812 82.8769 17.6731 82.957 17.2538C83.1876 17.2888 83.4079 17.398 83.5445 17.6063C83.7211 17.8695 83.7915 18.1922 83.7211 18.5097C83.6598 18.8272 83.4668 19.105 83.1955 19.2836C82.4241 19.7998 81.362 19.5912 80.8461 18.8194C80.1511 17.7897 80.4443 16.385 81.487 15.6956C83.3515 14.4771 84.9374 15.7351 85.7107 16.5961C85.7149 16.5961 85.7198 16.5961 85.7198 16.5985C85.7398 16.6238 85.7598 16.6536 85.7732 16.6735C89.4027 21.2041 92.5059 25.1148 97.8755 24.3056C99.9998 23.9828 101.876 22.8369 103.149 21.0749C103.379 20.7521 103.553 20.3948 103.736 20.0476V25.253C103.639 25.3275 103.533 25.3895 103.459 25.4987L101.867 27.8361C101.727 28.0317 101.712 28.2851 101.825 28.4934C101.935 28.6996 102.153 28.8308 102.392 28.8308H102.933C102.933 28.8605 102.909 28.8882 102.909 28.9249C102.909 29.724 103.569 30.3764 104.376 30.3764C105.184 30.3764 105.84 29.7236 105.84 28.9249C105.84 28.8878 105.82 28.8605 105.82 28.8308H106.498C106.515 28.8308 106.526 28.8308 106.533 28.8308C106.89 28.8308 107.174 28.5431 107.174 28.1955C107.174 27.997 107.081 27.8206 106.939 27.7044L105.431 25.5007C105.315 25.3373 105.169 25.2183 105.018 25.1287V20.0097C105.199 20.3744 105.392 20.7391 105.63 21.0765C106.902 22.8357 108.775 23.9873 110.9 24.3047C116.237 25.1185 119.37 21.2032 122.999 16.6727C123.024 16.6474 123.045 16.6201 123.055 16.5978C123.055 16.5978 123.06 16.5978 123.06 16.5953C123.844 15.7342 125.429 14.4714 127.287 15.6947C128.332 16.3842 128.622 17.7888 127.929 18.8186C127.413 19.5904 126.36 19.7941 125.577 19.2827C125.304 19.1043 125.116 18.8312 125.053 18.5089C124.989 18.1915 125.053 17.8687 125.231 17.6055C125.359 17.4168 125.549 17.2881 125.772 17.2432C125.795 17.2379 125.805 17.2526 125.825 17.2526C125.9 17.665 126.266 17.9727 126.696 17.9425C127.16 17.9025 127.498 17.5007 127.46 17.0444C127.455 16.9795 127.395 16.9347 127.372 16.8756C127.39 16.6572 127.328 16.4437 127.129 16.3096C126.651 15.9947 126.085 15.8855 125.527 15.9947C124.963 16.1063 124.487 16.4286 124.172 16.8952C123.798 17.4466 123.673 18.1091 123.798 18.7563C123.934 19.4066 124.309 19.9718 124.87 20.3394C125.376 20.6719 125.952 20.8308 126.523 20.8308C127.488 20.8308 128.434 20.3691 129.005 19.5207C130.093 17.9001 129.644 15.709 128.003 14.6312C127.044 14.0008 126.02 13.7901 125.006 13.982C125.141 13.795 125.273 13.6251 125.406 13.4364C125.923 12.7179 126.448 12.0036 126.979 11.295C126.994 11.2767 127.009 11.264 127.029 11.2465C127.031 11.2416 127.029 11.2367 127.034 11.2302C129.975 7.32843 133.338 3.86673 138.951 3.86673C138.966 3.86673 138.981 3.86673 138.991 3.86673C141.741 3.87448 144.226 4.96004 145.992 6.92135C147.973 9.11732 148.909 12.2212 148.552 15.4408C148.294 17.7909 147.124 19.9046 145.268 21.3887C143.545 22.7579 141.421 23.4034 139.235 23.2945C137.912 23.0708 136.851 22.473 136.172 21.5203C135.356 20.3789 135.085 18.7762 135.441 17.1234C135.666 16.0591 136.302 15.1434 137.221 14.5492C138.14 13.9551 139.242 13.7514 140.322 13.98C141.148 14.1536 141.862 14.6361 142.318 15.3398C142.781 16.0423 142.937 16.8806 142.759 17.6996C142.629 18.3178 142.263 18.8532 141.727 19.1984C141.186 19.546 140.539 19.6674 139.914 19.5305C139.488 19.4412 139.127 19.1931 138.872 18.8532C139.508 18.7289 139.994 18.1984 139.989 17.5309C139.979 16.7815 139.36 16.1857 138.604 16.196C138.03 16.2037 137.557 16.5533 137.362 17.0448C137.338 17.0892 137.297 17.1042 137.286 17.154C137.261 17.2583 137.294 17.3626 137.281 17.4714C137.276 17.506 137.261 17.526 137.261 17.5611C137.261 17.5859 137.276 17.6055 137.276 17.6255C137.241 18.2607 137.356 18.8956 137.712 19.4416C138.163 20.1267 138.854 20.5928 139.661 20.7668C140.627 20.9677 141.616 20.7868 142.438 20.2505C143.262 19.7191 143.828 18.9009 144.028 17.9527C144.278 16.8015 144.055 15.6202 143.407 14.6336C142.761 13.6474 141.764 12.9686 140.597 12.7253C139.184 12.4278 137.741 12.6943 136.534 13.4722C135.322 14.2513 134.496 15.449 134.198 16.8504C133.844 18.493 134.04 20.1034 134.686 21.4261C134.438 21.2029 134.201 20.9795 133.988 20.7167C132.813 19.2676 132.277 17.451 132.478 15.6002C132.811 12.6189 135.533 10.4429 138.534 10.7816C138.909 10.8227 139.205 10.568 139.235 10.2168C139.279 9.86913 139.019 9.557 138.666 9.51827C134.937 9.10145 131.598 11.7848 131.201 15.4637C130.957 17.6495 131.588 19.7986 132.976 21.5105C134.368 23.2224 136.344 24.2998 138.556 24.5354C138.776 24.5606 139.004 24.5606 139.225 24.57C139.262 24.5777 139.282 24.5875 139.322 24.5924C139.349 24.5977 139.377 24.5977 139.402 24.5977C139.417 24.5977 139.429 24.5879 139.442 24.5831C139.522 24.5879 139.602 24.5977 139.69 24.5977C142.007 24.5977 144.239 23.821 146.072 22.3646C148.203 20.6674 149.543 18.2505 149.834 15.5635C150.222 11.9955 149.173 8.53135 146.951 6.06803ZM105.019 8.7836V1.57538C105.565 2.12387 106.086 3.39404 106.086 5.18539C106.086 6.94618 105.562 8.22167 105.019 8.7836ZM103.737 1.77872V8.59857C103.247 7.98043 102.805 6.82189 102.805 5.18783C102.805 3.55377 103.247 2.39527 103.737 1.77872ZM108.404 5.18783C108.404 6.47716 107.762 7.61201 106.791 8.32798C107.153 7.46697 107.368 6.39526 107.368 5.18783C107.368 3.98083 107.15 2.90871 106.791 2.04523C107.762 2.75875 108.404 3.8977 108.404 5.18783ZM100.487 5.18783C100.487 3.90014 101.128 2.76771 102.095 2.05297C101.735 2.91401 101.52 3.98572 101.52 5.18783C101.52 6.3928 101.736 7.46451 102.1 8.32558C101.127 7.61243 100.487 6.47716 100.487 5.18783Z" fill="#F1F3F6"/>
</svg>
