<svg width="72" height="72" viewBox="0 0 72 72" fill="none" xmlns="http://www.w3.org/2000/svg">
<rect width="72" height="72" rx="36" fill="#F4F5F7"/>
<path fill-rule="evenodd" clip-rule="evenodd" d="M41.3783 24.4375H30.5633C26.7983 24.4375 24.437 27.105 24.437 30.88V41.0625C24.437 44.8375 26.7883 47.505 30.5633 47.505H41.372C45.1533 47.505 47.5033 44.8375 47.5033 41.0625V30.88C47.5083 27.105 45.157 24.4375 41.3783 24.4375Z" stroke="#130F26" stroke-width="1.5" stroke-linecap="round" stroke-linejoin="round"/>
<path fill-rule="evenodd" clip-rule="evenodd" d="M34.3787 31.9813C34.3787 33.2563 33.3462 34.2888 32.0712 34.2888C30.7974 34.2888 29.7637 33.2563 29.7637 31.9813C29.7637 30.7063 30.7974 29.6738 32.0712 29.6738C33.3449 29.6751 34.3774 30.7076 34.3787 31.9813Z" stroke="#130F26" stroke-width="1.5" stroke-linecap="round" stroke-linejoin="round"/>
<path d="M47.5088 39.6898C46.355 38.5023 44.1363 36.1035 41.7238 36.1035C39.31 36.1035 37.9187 41.3948 35.5975 41.3948C33.2762 41.3948 31.1675 39.0023 29.3075 40.536C27.4475 42.0685 25.6875 45.2023 25.6875 45.2023" stroke="#130F26" stroke-width="1.5" stroke-linecap="round" stroke-linejoin="round"/>
</svg>
