<svg width="72" height="72" viewBox="0 0 72 72" fill="none" xmlns="http://www.w3.org/2000/svg">
<rect width="72" height="72" rx="36" fill="#F4F5F7"/>
<path d="M32.4465 46.9643V43.1308C32.4465 42.1558 33.2414 41.3635 34.2263 41.357H37.8339C38.8234 41.357 39.6256 42.1512 39.6256 43.1308V43.1308V46.9762C39.6254 47.804 40.2928 48.4806 41.1288 48.5H43.5339C45.9314 48.5 47.875 46.5758 47.875 44.2023V44.2023V33.2973C47.8622 32.3635 47.4193 31.4867 46.6725 30.9163L38.4472 24.3566C37.0062 23.2145 34.9578 23.2145 33.5168 24.3566L25.3275 30.9282C24.5778 31.4963 24.1342 32.3746 24.125 33.3092V44.2023C24.125 46.5758 26.0686 48.5 28.4661 48.5H30.8712C31.7279 48.5 32.4225 47.8124 32.4225 46.9643V46.9643" stroke="#130F26" stroke-width="1.5" stroke-linecap="round" stroke-linejoin="round"/>
</svg>
